<?xml version="1.0" encoding="UTF-8" standalone="no"?>
<!-- Created with Inkscape (http://www.inkscape.org/) -->

<svg
   xmlns:dc="http://purl.org/dc/elements/1.1/"
   xmlns:cc="http://creativecommons.org/ns#"
   xmlns:rdf="http://www.w3.org/1999/02/22-rdf-syntax-ns#"
   xmlns:svg="http://www.w3.org/2000/svg"
   xmlns="http://www.w3.org/2000/svg"
   xmlns:sodipodi="http://sodipodi.sourceforge.net/DTD/sodipodi-0.dtd"
   xmlns:inkscape="http://www.inkscape.org/namespaces/inkscape"
   width="744.09448"
   height="1052.3622"
   id="svg7696"
   version="1.1"
   inkscape:version="0.91pre2 r13555"
   viewBox="0 0 744.09448 1052.3622"
   sodipodi:docname="icons.svg">
  <defs
     id="defs7698" />
  <sodipodi:namedview
     id="base"
     pagecolor="#ffffff"
     bordercolor="#666666"
     borderopacity="1.0"
     inkscape:pageopacity="0.0"
     inkscape:pageshadow="2"
     inkscape:zoom="0.63526005"
     inkscape:cx="587.72004"
     inkscape:cy="717.35094"
     inkscape:document-units="px"
     inkscape:current-layer="layer1"
     showgrid="false"
     inkscape:window-width="1345"
     inkscape:window-height="746"
     inkscape:window-x="21"
     inkscape:window-y="0"
     inkscape:window-maximized="1" />
  <metadata
     id="metadata7701">
    <rdf:RDF>
      <cc:Work
         rdf:about="">
        <dc:format>image/svg+xml</dc:format>
        <dc:type
           rdf:resource="http://purl.org/dc/dcmitype/StillImage" />
        <dc:title></dc:title>
      </cc:Work>
    </rdf:RDF>
  </metadata>
  <g
     inkscape:label="Layer 1"
     inkscape:groupmode="layer"
     id="layer1">
    <path
       style="fill:#ff00ff;fill-opacity:1;fill-rule:nonzero;stroke:none"
       d="m 409.05303,445.89169 c -0.61797,0.0495 -1.22914,0.19836 -1.82227,0.39649 -2.70125,0.98875 -3.62203,1.77859 -5.86328,3.55859 -0.203,0.14885 -0.40218,0.31607 -0.60547,0.48828 -10.10647,-0.0765 -18.97309,-0.0361 -21.00586,0.30274 -2.25778,0.37621 -2.15945,3.81948 -1.30273,7.64258 l -1.25195,0 0,7.29492 3.49804,0 c 0.78303,2.10156 1.44602,3.64348 1.49219,3.6875 0.0471,0.0452 0.22478,0.0828 0.45899,0.11719 -3.6e-4,0.66136 -10e-4,1.27731 -0.0625,1.94726 -0.26375,2.70125 -0.5925,5.60149 0,8.30274 0.1975,1.055 0.5932,2.04539 1.25195,2.90039 0.66,0.85625 1.51555,1.44875 2.43555,1.84375 2.30749,0.98875 5.01101,0.98882 7.44726,0.92382 2.76875,-0.1325 5.47007,-0.46281 8.23633,-0.72656 2.57125,-0.1975 5.96537,-0.49037 7.71093,-0.39453 1.74557,0.0958 3.19531,0.30295 7.05078,1.45117 -0.98875,-0.59375 -1.91195,-1.25348 -2.43945,-2.24218 -0.33,-0.72498 -0.66008,-1.71071 -0.33008,-2.50196 0.33,-0.85625 8.48446,-0.38351 8.50196,-0.19726 0.285,3.03 0.26336,2.56742 0.72461,4.54492 0.5275,0.46125 7.18312,1.11969 8.17187,-0.13281 0.59375,-0.65875 0.65836,-1.44917 0.72461,-2.30665 l -0.19727,-14.26562 c 0.22906,-0.008 1.53907,-0.0527 1.53907,-0.0527 l 4.83008,-12.91602 -2.10938,-4.67969 c 0,0 -9.13189,-0.18274 -19.58789,-0.34375 -1.00597,-0.95869 -2.09078,-1.98789 -2.53125,-2.40234 -0.92,-0.855 -1.90945,-1.64797 -3.0957,-2.04297 -0.62625,-0.1975 -1.25118,-0.2468 -1.86914,-0.19727 z m -61.49219,3.35938 c -1.48081,0.033 2.36844,3.09992 3.17383,4.86914 1.38625,3.3675 -11.33531,5.91469 -8.19531,2.77344 3.04625,-3.0475 -10.09414,1.63961 -8.55664,3.84961 1.2625,1.8125 10.5689,6.32281 7.4414,3.19531 -3.1275,-3.1275 8.40633,-1.72133 9.11133,-1.01758 0.70625,0.705 -2.37617,4.86352 -5.54492,6.44727 -3.005,1.50375 3.36617,0.99047 4.95117,0.19922 1.58125,-0.595 3.5825,-2.1311 5.5625,-0.77735 1.98,1.35375 -0.13422,3.34 -2.60547,6.25 -2.47,2.90875 10.07071,-2.28289 12.18946,-4.40039 2.11625,-2.1175 5.55664,-5.56969 5.55664,-9.02344 0,-3.4525 -1.85555,-5.73164 -3.2793,-8.08789 -1.4225,-2.35875 -11.02242,-6.27242 -7.32617,-2.57617 1.1275,1.12875 2.83742,4.23992 -0.95508,3.76367 -3.79125,-0.47625 -4.32867,-3.04992 -9.54492,-4.95117 -1.01227,-0.3689 -1.63679,-0.52129 -1.97852,-0.51367 z m 34.05664,3.11719 53.38086,0.26953 -0.004,0.99805 -53.38281,-0.26758 0.006,-1 z m 14.29101,2.13672 37.01954,0.23828 -0.008,1.13086 -37.01954,-0.23633 0.008,-1.13281 z m 26.74219,14.32031 c -2e-5,1.22699 -0.001,2.39569 -0.0664,3.625 -0.13125,0.9875 -0.26336,1.97383 -0.72461,2.83008 -0.5925,1.2525 -1.77836,1.9125 -3.16211,1.78125 -1.51624,-0.13125 -2.83328,-0.98891 -4.01953,-1.91016 -2.00369,-1.69214 -3.59328,-4.10956 -5.21875,-6.18945 2.78674,-0.0731 5.05291,0.10261 7.65039,0.0254 l -1.04882,3.33008 0,0.0644 0.52734,1.8457 c 0.92249,-0.265 1.58383,-1.18656 2.11133,-1.97656 0.25528,-0.44857 1.37556,-2.5698 1.4375,-3.35352 0.80474,-0.0248 1.75973,-0.0485 2.51367,-0.0723 z m -35.22851,1.57226 1.97656,0 0,11.1211 -1.97656,0 0,-11.1211 z m 2.96484,0 1.97851,0 0,11.1211 -1.97851,0 0,-11.1211 z m 2.9668,0 1.97656,0 0,11.1211 -1.97656,0 0,-11.1211 z"
       id="path5204-5-4"
       inkscape:connector-curvature="0" />
    <path
       inkscape:connector-curvature="0"
       style="fill:#ff00ff;fill-opacity:1;fill-rule:nonzero;stroke:none"
       d="m 386.05049,571.40297 c -2.27375,0.0537 -4.79992,0.42102 -6.63867,0.91602 -6.63875,1.86625 -10.13445,5.93859 -12.81445,11.99609 -1.86375,4.54375 -4.19235,8.97047 -3.02735,13.98047 0,0 -0.11632,3.72672 -1.04882,5.35547 -0.465,0.9325 -2.09524,2.09773 -1.39649,3.14648 0.58125,1.0475 2.32953,0.46649 3.14453,0.11524 2.32875,-0.93 4.07813,-2.67797 6.64063,-3.26172 2.5625,-0.46375 4.54203,0.35265 6.98828,0.8164 2.57125,0.45 5.35734,0.57271 8.15234,0.50391 2.795,0.0688 5.58304,-0.0539 8.15429,-0.50391 2.44625,-0.46625 4.42648,-1.28265 6.99023,-0.8164 2.56125,0.58375 4.30993,2.32922 6.63868,3.26172 0.815,0.35 2.56328,0.93281 3.14453,-0.11719 0.7,-1.04625 -0.93024,-2.21203 -1.39649,-3.14453 -0.9325,-1.63125 -1.05078,-5.35742 -1.05078,-5.35742 1.165,-5.0075 -1.16359,-9.43477 -3.02734,-13.97852 -2.68,-6.0575 -6.1725,-10.13234 -12.8125,-11.99609 -1.83874,-0.495 -4.36812,-0.86232 -6.64062,-0.91602 z m 20.2207,36.16797 c -0.62121,4.43581 -3.02628,6.07552 -6.66602,9.16016 -1.24282,1.05311 -2.30631,2.20982 -3.33398,3.33593 0.65817,0.21404 1.29992,0.47581 1.91797,0.79883 0.84418,-0.88397 1.64411,-1.82614 2.39453,-2.82031 1.51375,-2.00625 4.50799,-3.58617 6.26171,-5.57617 1.0492,-1.19027 1.51486,-2.54576 1.74415,-3.98438 -0.49332,-0.12028 -0.92048,-0.28451 -1.23633,-0.41992 -0.38086,-0.15316 -0.73694,-0.3212 -1.08203,-0.49414 z m -40.47265,0.0195 c -0.33424,0.16639 -0.67924,0.32701 -1.04688,0.47461 -0.33635,0.1447 -0.79335,0.32245 -1.32617,0.44336 0.18872,1.61653 0.63106,3.13044 1.81055,4.4375 2.315,2.56375 5.18109,4.14633 7.27734,6.92383 0.31708,0.42003 0.66099,0.82493 1.01758,1.2207 0.74725,-0.42851 1.5347,-0.7634 2.34571,-1.02539 -1.33931,-1.53433 -2.60598,-3.16553 -4.31641,-4.61523 -1.595,-1.3525 -2.64445,-1.77407 -4.06445,-3.38282 -1.16968,-1.32767 -1.54913,-2.86436 -1.69727,-4.47656 z m 20.25,12.81055 c -3.9575,-0.005 -8.95203,-0.18953 -12.39453,2.07422 -1.45625,0.95625 4.24594,1.62789 5.39844,0.86914 3,-1.97 11.01695,-1.94422 14.00194,0.0195 1.15,0.75625 6.85508,0.0562 5.39258,-0.90625 -3.44625,-2.26625 -8.44218,-2.05039 -12.39843,-2.05664 z m -5.50781,3.59961 c -0.31321,0.12223 -0.59345,0.25078 -0.80078,0.38672 -0.52562,0.34601 -0.99977,0.44321 -1.49805,0.48437 2.83459,1.58778 6.08689,2.38401 9.33789,1.88477 2.09105,-0.32124 3.97177,-1.00657 5.67772,-1.96485 -0.28927,-0.0711 -0.57987,-0.17846 -0.89062,-0.38281 -0.12558,-0.0826 -0.27662,-0.16384 -0.44336,-0.24219 -2.40925,1.61805 -5.36934,2.21986 -10.06835,0.4336 -0.46944,-0.1787 -0.90049,-0.38359 -1.31445,-0.59961 z"
       id="path25184-16-4" />
    <path
       style="fill:#ff00ff;fill-opacity:1;fill-rule:nonzero;stroke:none;stroke-width:2.5;stroke-miterlimit:4;stroke-dasharray:none"
       d="m 399.5666,518.02622 0,1.58468 -4.90683,0 -5.35582,2.57698 -4.30315,0.83195 -4.9804,0 0,0.60369 -9.01943,0 0,0.55274 -23.7135,0 -1.04324,-0.65085 -2.47511,0 -0.3924,1.56392 0.3924,1.56393 2.47511,0 1.04324,-0.65274 23.7135,0 0,0.55275 9.01943,0 0,0.60369 4.9804,0 2.56567,0.83006 31.84439,0 1.50921,-2.64112 -1.50921,-3.09389 -11.77186,-2.64111 0,-1.58468 z m -19.68396,11.3178 -8.80438,1.14322 -7.17632,5.06151 3.15427,4.75781 0.23015,0 c 0.0862,0.20525 0.1749,0.41246 0.27544,0.62255 l 0.68667,-0.33959 c 0.0869,0.17749 0.17372,0.35355 0.26789,0.52258 l -0.65838,0.37542 c 0.3924,0.6725 0.83263,1.27339 1.40734,1.60541 0.29701,0.16421 0.85882,0.45202 1.53374,0.79612 l 0.3471,-0.6735 c 0.17266,0.0894 0.34797,0.18007 0.5339,0.27545 l -0.34146,0.67349 c 1.08905,0.55297 2.33988,1.19574 3.19953,1.67144 l 0.36599,-0.6584 c 0.10624,0.058 0.22139,0.12233 0.31315,0.17546 0.0749,0.0422 0.14194,0.0745 0.21317,0.11313 l -0.35842,0.66783 c 1.37278,0.74616 2.44017,0.83709 3.69946,0.8395 l 0.006,-0.75649 c 0.0713,9.7e-4 0.13832,0.002 0.21318,0.002 l 0.39051,0 0,0.75649 c 0.63025,-0.003 1.91686,-0.003 3.64098,-0.003 l 0,-0.75649 0.60369,0 0,0.75838 c 1.07939,-0.002 2.30531,-0.002 3.63342,-0.002 l 0,-0.75649 0.60368,0 0,0.75837 c 1.15063,-0.002 2.37106,-0.002 3.63155,-0.002 l 0,-0.75649 0.60369,0 0,0.75837 c 1.18684,-0.002 2.40296,-0.002 3.62965,-0.002 l 0,-0.75649 0.60369,0 0,0.75837 c 1.21099,-0.002 2.43143,-0.002 3.63154,-0.002 l 0,-0.75649 0.60369,0 0,0.75838 c 1.23877,-0.002 2.45487,-0.002 3.62965,-0.002 l 0,-0.75649 0.60369,0 0,0.75649 3.63155,0 0,-0.75649 0.60368,0 0,0.75838 c 1.39089,-0.002 2.62542,-0.002 3.6372,-0.002 l 0,-0.75461 0.60557,0 0,0.75461 2.2374,0 c 0.58437,0 1.0563,-0.0282 1.44508,-0.0718 l -0.0811,-0.75461 c 0.21974,-0.0254 0.4093,-0.0527 0.5735,-0.0831 l 0.13773,0.74894 c 0.53723,-0.10262 0.85356,-0.20744 1.0564,-0.22072 0.35618,-0.0386 1.2915,-0.31052 2.51095,-0.71499 l -0.24336,-0.71876 c 0.18593,-0.0639 0.37655,-0.13048 0.56973,-0.19809 l 0.25089,0.71688 c 1.22428,-0.42982 2.53171,-0.95232 3.40706,-1.47148 l -0.38485,-0.64896 c 0.18955,-0.10987 0.3389,-0.2162 0.45843,-0.31882 l 0.48295,0.5867 c 0.0604,-0.0507 0.11977,-0.10034 0.17167,-0.15469 1.13468,-1.12265 1.4406,-2.33769 1.4696,-3.36366 l 0.0396,0 1.34698,-4.91626 -1.81672,-6.04628 -47.02707,0 z m -5.14077,10.96254 0.36222,0 c -0.44269,0.58711 -0.71499,1.30986 -0.71499,2.10158 0,1.40877 0.83747,2.61482 2.03554,3.17312 -0.32195,-0.11797 -0.66312,-0.26867 -1.05645,-0.4905 -1.53094,-0.87896 -4.78375,-2.47427 -5.58785,-2.92221 -0.14549,-0.0559 -0.30833,-0.22225 -0.47351,-0.42635 0.60041,0.47967 1.35141,0.77912 2.17892,0.77912 1.47979,0 2.74043,-0.91882 3.25612,-2.21476 z m 5.95196,0 3.61645,0 c -0.44269,0.58711 -0.71498,1.30986 -0.71498,2.10158 0,1.93783 1.57418,3.50892 3.5108,3.50892 1.93783,0 3.50891,-1.57109 3.50893,-3.50892 -2e-5,-0.79183 -0.27258,-1.51446 -0.715,-2.10158 l 3.99377,0 c -0.44244,0.58712 -0.715,1.30975 -0.715,2.10158 0,1.93201 1.56214,3.49763 3.49195,3.50704 -4.60675,0 -6.25563,9.6e-4 -9.56465,0.002 -2.80776,3.3e-4 -7.79251,8e-4 -8.1158,0.002 -0.3331,-0.002 -0.6238,-0.007 -0.90176,-0.0208 1.84832,-0.1 3.32029,-1.61681 3.32027,-3.49004 0,-0.79183 -0.27256,-1.51446 -0.71498,-2.10159 z m 18.78971,0 4.06732,0 c -0.44238,0.58711 -0.7131,1.30986 -0.7131,2.10158 0,1.93783 1.56988,3.50892 3.50892,3.50892 1.93782,0 3.50892,-1.57109 3.50892,-3.50892 0,-0.79183 -0.27257,-1.51446 -0.71499,-2.10158 l 3.99376,0 c -0.44238,0.58711 -0.71311,1.30986 -0.71311,2.10158 0,1.89843 1.50937,3.43552 3.39383,3.4976 -0.10998,0.002 -0.17801,0.0127 -0.29995,0.0131 -0.48813,-9.7e-4 -5.79982,-9.7e-4 -9.16846,-0.002 -3.41369,-3.1e-4 -4.91022,-0.002 -9.2911,-0.002 l -0.35089,0 c 1.93099,-0.01 3.49195,-1.57503 3.49195,-3.50704 0,-0.79182 -0.27085,-1.51445 -0.7131,-2.10158 z m 19.24057,0 0.64519,0 c -4e-4,0.0218 -0.006,0.0423 -0.006,0.0641 0,1.93783 1.56989,3.50891 3.50892,3.50891 0.24222,0 0.47904,-0.025 0.70744,-0.0718 -1.89857,0.8369 -4.80595,1.74908 -5.00681,1.72993 l -0.002,0 c -0.6449,0.0676 -1.07369,0.27923 -2.34493,0.34902 1.79687,-0.1527 3.21272,-1.64232 3.21272,-3.47873 0,-0.79184 -0.27256,-1.51446 -0.71498,-2.10159 z"
       id="path25668-1-4-7-8-2-8"
       inkscape:connector-curvature="0"
       sodipodi:nodetypes="cccccccccccccccccccccccccccccccccccccccccccccccccsccccccccccccccccccccccccccccccccccsccccccccccccccccccccccsccccscccsscccscccccccccsssccscccscsccccssccccscc" />
    <path
       style="fill:#ff00ff"
       d="m 538.19732,301.82718 c -1.6138,0.0321 -3.18383,0.47981 -4.51953,1.4082 -4.53752,3.15409 -4.76505,7.23339 -2.08008,13.11524 -0.33389,-4.15487 2.00821,-7.94233 6.55469,-9.41797 4.60375,-1.49311 8.60017,0.37871 10.69921,4.04101 -0.56776,-5.6002 -5.81291,-9.2427 -10.65429,-9.14648 z m -21.19141,2.16016 c -3.04096,0.0991 -5.9066,1.44429 -7.41992,3.91015 -2.32671,3.79131 -2.07004,9.22827 2.92969,13.56641 -1.82655,-3.86167 -0.95459,-8.34219 2.86914,-11.4043 3.87179,-3.10074 8.3808,-2.75627 11.7207,0 -1.98954,-4.26625 -6.1898,-6.19973 -10.09961,-6.07226 z m 24.60352,4.4707 c -0.9024,-0.0289 -1.85682,0.1068 -2.83985,0.42578 -5.24279,1.70122 -6.90039,7.12289 -3.78125,11.93359 l 16.6543,27.96094 -2.93359,-32.41211 c -0.23823,-4.58486 -3.18924,-7.78294 -7.09961,-7.9082 z m -20.625,1.29492 c -1.52337,0.0168 -3.04451,0.53787 -4.37891,1.73242 -4.30664,3.85547 -4.12484,9.54873 0.71875,13.10938 l 26.70508,21.24609 -14.90039,-30.70117 c -1.42823,-3.02152 -4.79312,-5.42359 -8.14453,-5.38672 z m 23.24804,2.20117 c 0.19556,0.0425 0.40828,0.19417 0.69532,0.50781 0.57407,0.62729 1.2352,2.0761 1.45508,4.50391 l 1.57421,17.38086 -5.02148,-14.44336 c -0.78023,-2.24405 -0.86828,-4.10849 -0.61133,-5.44922 0.25695,-1.34073 0.87056,-2.11295 1.3125,-2.35547 0.22097,-0.12126 0.40014,-0.18706 0.5957,-0.14453 z m -20.90234,0.88867 c 0.22757,-0.0324 0.51299,0.0394 0.92578,0.24805 0.82559,0.41733 2.02291,1.60709 3.14649,3.91211 l 8.23437,16.89453 -10.67773,-12.71875 c -1.61357,-1.92169 -2.39735,-3.72474 -2.64258,-5.14062 -0.24523,-1.41587 0.0735,-2.40354 0.43555,-2.81836 0.18099,-0.20738 0.35055,-0.3446 0.57812,-0.37696 z m -18.82226,7.50391 c -2.48685,-0.0197 -4.80455,1.0591 -6.62305,2.92969 -5.64614,5.80802 -1.4819,15.04338 5.41406,17.0332 -3.21779,-2.81812 -4.20398,-7.27928 -1.91406,-11.61719 2.31888,-4.39149 6.59743,-5.87489 10.76172,-4.68164 -2.49653,-2.52642 -5.15183,-3.6444 -7.63867,-3.66406 z m 5.32617,5.13477 c -2.63913,-0.0125 -5.11402,1.38999 -6.59961,4.20312 -2.6406,5.00226 0.0178,10.17811 5.7539,11.48633 l 32.25586,8.66015 -25.3457,-21.75 c -1.86031,-1.72458 -4.0118,-2.58988 -6.06445,-2.5996 z m 0.58789,2.40234 c 0.87794,0.0538 2.40932,0.65491 4.32031,2.28906 l 13.77734,11.7793 -14.18164,-7.12695 c -2.18695,-1.09915 -3.59989,-2.41251 -4.38281,-3.58985 -0.78292,-1.17734 -0.89291,-2.1941 -0.74414,-2.69336 0.14877,-0.49925 0.333,-0.71205 1.21094,-0.6582 z m -7.49414,14.38672 c -3.15692,-0.13355 -5.76141,1.42195 -6.68555,4.99219 -1.67431,6.46846 2.1065,12.80885 9.5332,13.07031 -3.45327,-1.53266 -5.45524,-5.03565 -4.66211,-9.29492 0.80347,-4.31192 4.02256,-6.68479 7.84766,-6.77149 -2.04624,-1.22745 -4.13906,-1.91596 -6.0332,-1.99609 z m 6.29687,3.6582 c -2.74621,-0.041 -5.19928,1.51672 -6.11719,5.49219 -1.08746,4.70952 2.59895,8.30119 7.61133,7.91211 l 28.51758,-1.1211 -26.20117,-11.31445 c -1.25291,-0.60285 -2.56227,-0.95013 -3.81055,-0.96875 z m -0.40039,2.34375 c 0.25407,-0.007 0.54883,0.009 0.88086,0.0566 0.66407,0.096 1.4807,0.31743 2.43945,0.73047 l 0.2168,0.0937 12.97266,5.58789 -12.49024,-1.89453 c -2.02614,-0.30752 -3.44548,-1.00343 -4.3164,-1.74023 -0.87093,-0.7368 -1.15591,-1.49766 -1.14453,-1.91993 0.0114,-0.42227 0.10815,-0.64269 0.80078,-0.83007 0.17315,-0.0469 0.38655,-0.0769 0.64062,-0.084 z"
       id="path50427-7"
       inkscape:connector-curvature="0" />
    <path
       inkscape:connector-curvature="0"
       d="m 548.4285,298.50903 63,0 0,63 -63,0 z"
       id="path50415-1"
       style="fill:none;stroke:none" />
    <path
       inkscape:connector-curvature="0"
       style="fill:#ff00ff;stroke:none;stroke-width:2.5;stroke-miterlimit:4;stroke-dasharray:none"
       d="m 433.57236,300.18 -7.21875,7.20703 3.17188,0.85156 -1.91602,7.1543 c -0.3698,-0.0513 -0.73933,-0.10115 -1.10742,-0.12305 -0.40654,-0.0242 -0.81214,-0.03 -1.21484,-0.0195 l 2.70312,5.63086 5.18946,-3.48828 c -0.76834,-0.47623 -1.58601,-0.89066 -2.45703,-1.21875 l 1.90429,-7.10547 3.52539,0.94531 -0.002,-0.002 -2.57813,-9.83203 z m -23.14843,3.04492 -0.01,10.20117 2.84375,-1.64257 3.70508,6.41601 c -0.61592,0.4688 -1.18992,0.99229 -1.72656,1.55664 l 6.14257,2.01953 1.11524,-6.16601 c -0.95804,0.22058 -1.88925,0.53409 -2.77734,0.93945 l -3.67774,-6.37109 3.16016,-1.82422 -8.77539,-5.12891 z m 31.41211,11.14649 1.64257,2.84375 -6.41796,3.70507 c -0.46484,-0.61182 -0.98414,-1.1829 -1.54297,-1.71679 l -1.98047,5.90625 6.05469,1.0957 c -0.21442,-0.87273 -0.50104,-1.7226 -0.8711,-2.53516 l 6.36328,-3.67382 1.82422,3.16015 5.12891,-8.77539 -10.20117,-0.01 z m -35.7793,4.73828 -9.83398,2.57812 7.20703,7.22071 0.85156,-3.17188 7.15625,1.91797 c -0.11426,0.82835 -0.14701,1.65226 -0.11719,2.4668 l 5.83008,-2.79883 -3.66602,-5.31446 c -0.49566,0.79019 -0.92313,1.63375 -1.26171,2.53321 l -7.11133,-1.90625 0.94531,-3.52539 z m 33.93945,10.00781 -5.54492,2.74805 3.47266,5.16601 c 0.38606,-0.63558 0.72869,-1.30457 1.01562,-2.00976 l 7.14063,1.91406 -0.84961,3.17187 9.85156,-2.64843 -7.22656,-7.14844 -0.94531,3.52344 -7.0879,-1.89844 c 0.15605,-0.94557 0.20606,-1.88807 0.17383,-2.81836 z m -28.31054,3.72266 c 0.18424,0.78849 0.42653,1.56037 0.73828,2.30273 l -6.42188,3.70898 -1.64258,-2.84375 -5.09179,8.83985 10.16406,-0.0547 -1.82422,-3.16016 6.36914,-3.67773 c 0.57331,0.80317 1.23055,1.54652 1.96289,2.21875 l 2.125,-6.0957 -6.3789,-1.23828 z m 18.51757,4.42773 -1.13281,6.26563 c 0.72331,-0.18063 1.43188,-0.41181 2.11524,-0.69922 l 3.70898,6.42578 -2.84375,1.64258 8.83984,5.09179 -0.0547,-10.16406 -3.16016,1.82422 -3.6875,-6.38672 c 0.78713,-0.56276 1.51722,-1.20672 2.18164,-1.91992 l -5.9668,-2.08008 z m -6.61132,0.89453 -5.41407,3.6875 c 0.65223,0.39696 1.33856,0.75055 2.0625,1.04492 l -1.91406,7.14258 -3.17187,-0.84961 2.64843,9.85156 7.14844,-7.22656 -3.52344,-0.94531 1.90039,-7.0918 c 1.02048,0.16816 2.03872,0.22055 3.03907,0.16797 l -2.77539,-5.78125 z"
       id="path52630" />
    <path
       inkscape:connector-curvature="0"
       style="fill:#ff00ff;stroke:none;stroke-width:2.5;stroke-miterlimit:4;stroke-dasharray:none"
       d="m 574.08053,315.57937 0,4.14844 11.10937,5.49609 -11.10937,-1.39648 0,3.1621 10.83984,1.11133 -10.83984,2.36719 0,3.01367 12.12305,-2.28711 -12.12305,6.2461 0,3.50586 c 0.1488,0.0832 0.2983,0.157 0.44726,0.23828 l 13.16602,-7.17383 -8.46875,9.41601 c 1.58567,0.64724 3.15073,1.16103 4.68359,1.58008 l -1.20703,-0.44336 7.1582,-8.66211 -3.05273,9.78125 c 1.14107,0.20962 2.24717,0.3433 3.31445,0.41407 l 2.35938,-7.98438 1.72266,7.88672 c 1.26211,-0.16407 2.42251,-0.45563 3.44726,-0.88477 0.50981,2.23219 1.41902,4.1691 2.58789,5.53321 l -13.22265,20.26562 34.78124,0 -13.22265,-20.26562 c 1.18451,-1.36411 2.13895,-3.30102 2.6582,-5.53321 0.84774,0.34982 1.79274,0.59966 2.80274,0.77149 l 1.69726,-7.77344 2.36719,8.00586 c 1.06589,-0.0422 2.18399,-0.17151 3.33008,-0.35742 l -3.07813,-9.85938 7.16016,8.66211 -2.34766,0.86524 c 1.93096,-0.4214 3.9384,-1.03505 5.97461,-1.83399 l -8.61914,-9.58398 13.46289,7.33594 c 0.24914,-0.13351 0.49921,-0.26121 0.74805,-0.40039 l 0,-3.19922 -12.7207,-6.55274 12.7207,2.40039 0,-2.99609 -11.4375,-2.49805 11.4375,-1.17383 0,-3.17578 -11.70703,1.47266 11.70703,-5.79297 0,-3.85156 -15.73633,7.9043 c 0.32378,0.86947 0.50195,1.71584 0.50195,2.6582 0,4.24501 -3.48276,7.95901 -8.55078,9.70117 -4.69044,-4.56534 -4.66514,-9.84615 1.93946,-8.68555 -0.007,-4.59409 -1.97067,-6.42937 -6.03516,-6.53906 -2.43869,-0.0667 -5.62294,0.50555 -9.63086,1.50977 4.50233,7.80521 1.75287,8.55575 0.71875,13.71484 -5.09447,-1.73503 -8.62305,-5.44236 -8.62305,-9.70117 0,-0.90488 0.27482,-1.74683 0.57422,-2.58594 l -15.80859,-7.97656 z m 28.7539,41.04492 0,13.5957 -3.8457,0.27344 3.8457,-13.86914 z m 2.64844,0 3.84571,13.86914 -3.84571,-0.27344 0,-13.5957 z m -5.26953,0.48047 -3.57031,12.77148 -5.28711,0.89258 8.85742,-13.66406 z m 7.89063,0 8.85742,13.66406 -5.28711,-0.89258 -3.57031,-12.77148 z"
       id="path54424-2" />
    <text
       xml:space="preserve"
       style="font-style:normal;font-variant:normal;font-weight:normal;font-stretch:normal;font-size:80px;line-height:125%;font-family:'Fontin SmallCaps';-inkscape-font-specification:'Fontin SmallCaps, ';text-align:start;letter-spacing:0px;word-spacing:0px;writing-mode:lr-tb;text-anchor:start;fill:#ff00ff;fill-opacity:1;stroke:none;stroke-width:2.5;stroke-linecap:butt;stroke-linejoin:miter;stroke-miterlimit:4;stroke-dasharray:none;stroke-opacity:1;"
       x="180.71239"
       y="771.36182"
       id="text6029-42"
       sodipodi:linespacing="125%"><tspan
         sodipodi:role="line"
         id="tspan6031-0"
         x="180.71239"
         y="771.36182">1</tspan></text>
    <text
       xml:space="preserve"
       style="font-style:normal;font-variant:normal;font-weight:normal;font-stretch:normal;font-size:80px;line-height:125%;font-family:'Fontin SmallCaps';-inkscape-font-specification:'Fontin SmallCaps, ';text-align:start;letter-spacing:0px;word-spacing:0px;writing-mode:lr-tb;text-anchor:start;fill:#ff00ff;fill-opacity:1;stroke:none;stroke-width:2.5;stroke-linecap:butt;stroke-linejoin:miter;stroke-miterlimit:4;stroke-dasharray:none;stroke-opacity:1;"
       x="265.69632"
       y="771.28369"
       id="text6033-8"
       sodipodi:linespacing="125%"><tspan
         sodipodi:role="line"
         id="tspan6035-7"
         x="265.69632"
         y="771.28369">2</tspan></text>
    <text
       xml:space="preserve"
       style="font-style:normal;font-variant:normal;font-weight:normal;font-stretch:normal;font-size:80px;line-height:125%;font-family:'Fontin SmallCaps';-inkscape-font-specification:'Fontin SmallCaps, ';text-align:start;letter-spacing:0px;word-spacing:0px;writing-mode:lr-tb;text-anchor:start;fill:#ff00ff;fill-opacity:1;stroke:none;stroke-width:2.5;stroke-linecap:butt;stroke-linejoin:miter;stroke-miterlimit:4;stroke-dasharray:none;stroke-opacity:1;"
       x="354.82086"
       y="767.96338"
       id="text6037-3"
       sodipodi:linespacing="125%"><tspan
         sodipodi:role="line"
         id="tspan6039-8"
         x="354.82086"
         y="767.96338">3</tspan></text>
    <text
       xml:space="preserve"
       style="font-style:normal;font-variant:normal;font-weight:normal;font-stretch:normal;font-size:80px;line-height:125%;font-family:'Fontin SmallCaps';-inkscape-font-specification:'Fontin SmallCaps, ';text-align:start;letter-spacing:0px;word-spacing:0px;writing-mode:lr-tb;text-anchor:start;fill:#ff00ff;fill-opacity:1;stroke:none;stroke-width:2.5;stroke-linecap:butt;stroke-linejoin:miter;stroke-miterlimit:4;stroke-dasharray:none;stroke-opacity:1;"
       x="442.51306"
       y="768.08057"
       id="text7168-9"
       sodipodi:linespacing="125%"><tspan
         sodipodi:role="line"
         id="tspan7170-6"
         x="442.51306"
         y="768.08057">4</tspan></text>
    <text
       xml:space="preserve"
       style="font-style:normal;font-variant:normal;font-weight:normal;font-stretch:normal;font-size:80px;line-height:125%;font-family:'Fontin SmallCaps';-inkscape-font-specification:'Fontin SmallCaps, ';text-align:start;letter-spacing:0px;word-spacing:0px;writing-mode:lr-tb;text-anchor:start;fill:#ff00ff;fill-opacity:1;stroke:none;stroke-width:1px;stroke-linecap:butt;stroke-linejoin:miter;stroke-opacity:1;"
       x="530.70673"
       y="767.92432"
       id="text8767"
       sodipodi:linespacing="125%"><tspan
         sodipodi:role="line"
         id="tspan8769"
         x="530.70673"
         y="767.92432">5</tspan></text>
    <text
       xml:space="preserve"
       style="font-style:normal;font-variant:normal;font-weight:normal;font-stretch:normal;font-size:80px;line-height:125%;font-family:'Fontin SmallCaps';-inkscape-font-specification:'Fontin SmallCaps, ';text-align:start;letter-spacing:0px;word-spacing:0px;writing-mode:lr-tb;text-anchor:start;fill:#ff00ff;fill-opacity:1;stroke:none;stroke-width:1px;stroke-linecap:butt;stroke-linejoin:miter;stroke-opacity:1;"
       x="618.05396"
       y="773.95947"
       id="text8771"
       sodipodi:linespacing="125%"><tspan
         sodipodi:role="line"
         id="tspan8773"
         x="618.05396"
         y="773.95947">6</tspan></text>
  </g>
</svg>
